<svg width="128" height="364.3" xmlns="http://www.w3.org/2000/svg" xmlns:xlink="http://www.w3.org/1999/xlink"><defs><symbol viewBox="0 0 12 12" id="arrow-down">
<path d="M11.7555 5.47744C12.085 5.81185 12.081 6.35003 11.7465 6.67949L6.74654 11.6054C6.41565 11.9314 5.88435 11.9314 5.55346 11.6054L0.553461 6.67949C0.219047 6.35003 0.21503 5.81185 0.544491 5.47744C0.87395 5.14302 1.41212 5.13901 1.74654 5.46847L5.3 8.96928L5.3 0.999902C5.3 0.53046 5.68056 0.149902 6.15 0.149902C6.61944 0.149902 7 0.53046 7 0.999902L7 8.96928L10.5535 5.46847C10.8879 5.13901 11.426 5.14302 11.7555 5.47744Z" />
</symbol><symbol id="arrow-down-tip" viewBox="0 0 9.1 5.7">
<polygon points="4.6,5.7 0,1.1 1.1,0 4.6,3.4 8,0 9.1,1.1 " />
</symbol><symbol id="arrow-right" viewBox="0 0 9.4 9.4">
<style type="text/css">
	#arrow-right .st0{fill:#191A22;}
</style>
<polygon class="st0" points="4.7,9.4 3.3,8 5.6,5.7 0,5.7 0,3.7 5.6,3.7 3.3,1.4 4.7,0 9.4,4.7 8.7,5.4 8.7,5.4 " />
</symbol><symbol id="arrow-tip-left" viewBox="0 0 7.7 13.1">
<polygon points="6.6,13.1 7.7,12 2.3,6.6 7.7,1.1 6.6,0 0,6.6 " />
</symbol><symbol id="arrow-tip-right" viewBox="0 0 7.7 13.1">
<polygon points="1.1,0 0,1.1 5.4,6.6 0,12 1.1,13.1 7.7,6.6 " />
</symbol><symbol viewBox="0 0 128 62" fill="none" id="client-1">
<path d="M0.61377 18.9648H11.4736C17.8617 18.9648 20.9281 22.8279 20.9281 28.2361C20.9281 33.6444 17.0952 37.1212 11.7291 37.1212H5.72428V46.3925H0.61377V18.9648ZM5.72428 32.8718H10.8348C14.0289 32.8718 15.562 30.9403 15.562 28.2361C15.562 24.3731 13.5178 23.343 10.5793 23.343H5.72428V32.8718Z" fill="#191A22" />
<path d="M26.8052 18.9648H39.5815C44.0532 18.9648 47.6305 21.2827 47.6305 25.7896C47.6305 28.7512 45.9696 30.8115 43.0311 31.3266V31.4554C46.7362 31.8417 48.9081 34.9321 48.9081 38.2801C48.9081 45.1048 44.0532 46.5212 38.4316 46.5212H26.8052V18.9648ZM31.9157 30.0389H38.0483C40.348 30.0389 42.3922 29.1375 42.3922 26.5622C42.3922 24.5019 41.1146 23.0854 38.0483 23.0854H31.9157V30.0389ZM31.9157 41.8856H38.5594C41.6257 41.8856 43.5421 40.9842 43.5421 38.0225C43.5421 34.9321 41.6257 33.7732 38.5594 33.7732H31.9157V41.8856Z" fill="#191A22" />
<path d="M57.8517 38.0224C59.7682 40.8553 62.7067 42.1429 65.9008 42.1429C68.3283 42.1429 71.5224 41.3703 71.5224 38.6662C71.5224 36.6059 69.6059 35.9621 66.0286 35.0607L63.09 34.4169C58.8738 33.3867 55.041 31.8415 55.041 26.9483C55.041 21.2825 60.407 18.5784 65.3897 18.5784C69.9892 18.5784 73.6943 20.2524 76.5051 23.9866L72.2889 27.2058C71.0113 24.7592 68.5838 23.3428 65.262 23.3428C62.3234 23.3428 60.1515 24.5017 60.1515 26.3045C60.1515 28.4935 62.7067 29.0086 65.6453 29.7812L68.9671 30.5538C72.9278 31.4552 76.6329 33.0004 76.6329 38.1511C76.6329 44.7183 70.5003 47.0361 65.0065 47.0361C60.5348 47.0361 56.0631 45.1046 53.5078 41.3703L57.8517 38.0224Z" fill="#191A22" />
<path d="M100.397 28.2362C100.013 25.2745 97.5857 23.2142 94.5194 23.2142C89.1534 23.2142 86.9814 27.9787 86.9814 32.6143C86.9814 37.25 89.1534 42.0144 94.5194 42.0144C97.969 42.0144 100.013 39.6966 100.908 36.6061L105.507 38.6664C103.335 44.0747 99.7577 46.65 94.5194 46.65C85.9593 46.65 81.7432 40.0829 81.7432 32.4855C81.7432 24.8882 86.5981 18.321 94.5194 18.321C99.8855 18.321 103.974 21.1539 105.252 26.8197L100.397 28.2362Z" fill="#191A22" />
<path d="M6.23533 58.4965C6.23533 60.6856 5.34099 61.8445 3.42455 61.8445C1.50811 61.8445 0.61377 60.6856 0.61377 58.4965V54.1184H1.50811V58.4965C1.50811 59.2691 1.63587 59.7842 1.8914 60.1705C2.14692 60.6856 2.65797 60.8143 3.42455 60.8143C4.19113 60.8143 4.70218 60.5568 4.95771 60.1705C5.21323 59.7842 5.34099 59.2691 5.34099 58.4965V54.1184H6.23533V58.4965Z" fill="#191A22" />
<path d="M14.0286 61.7157H13.0065L11.3456 58.8828C11.0901 58.4965 10.8346 58.3678 10.579 58.3678H9.55694V61.7157H8.6626V54.1184H11.3456C12.1122 54.1184 12.751 54.2472 13.1343 54.6335C13.6453 55.0198 13.9009 55.5349 13.9009 56.3075C13.9009 56.8225 13.7731 57.3376 13.3898 57.7239C13.1343 58.1102 12.6232 58.3678 12.1122 58.4965C12.1122 58.4965 12.24 58.6253 12.3677 58.7541L14.0286 61.7157ZM12.8788 56.3075C12.8788 55.5349 12.3677 55.1486 11.3456 55.1486H9.6847V57.7239H11.4734C12.3677 57.5951 12.8788 57.2088 12.8788 56.3075Z" fill="#191A22" />
<path d="M21.4388 59.5267C21.4388 60.2993 21.1833 60.9431 20.5445 61.3294C20.1612 61.587 19.6501 61.7157 18.8835 61.7157H16.0728V54.1184H18.7558C19.3946 54.1184 20.0334 54.2472 20.4167 54.5047C21.0555 54.891 21.311 55.4061 21.311 56.3075C21.311 56.9513 21.0555 57.4664 20.6722 57.8527C21.1833 58.1102 21.4388 58.7541 21.4388 59.5267ZM20.1612 56.1787C20.1612 55.6636 20.0334 55.4061 19.6501 55.2773C19.3946 55.1486 19.0113 55.0198 18.628 55.0198H16.9671V57.3376H18.628C19.1391 57.3376 19.5223 57.2088 19.6501 57.0801C20.0334 56.9513 20.1612 56.6938 20.1612 56.1787ZM20.5445 59.5267C20.5445 59.0116 20.4167 58.6253 20.0334 58.4965C19.7779 58.3678 19.3946 58.239 18.8835 58.239H16.9671V60.6856H18.8835C19.3946 60.6856 19.7779 60.5568 20.0334 60.428C20.2889 60.428 20.5445 60.0417 20.5445 59.5267Z" fill="#191A22" />
<path d="M29.7439 61.7157H28.7218L27.8275 59.5267H24.7612L23.8668 61.7157H22.8447L25.7833 54.1184H26.8054L29.7439 61.7157ZM27.572 58.6253L26.2943 55.5349L25.1445 58.6253H27.572Z" fill="#191A22" />
<path d="M36.8984 61.7157H36.0041L32.5545 56.0499V61.7157H31.6602V54.1184H32.5545L36.0041 59.7842V54.1184H36.8984V61.7157Z" fill="#191A22" />
<path d="M48.9083 59.5268C48.9083 60.2994 48.6528 60.8145 48.014 61.2008C47.5029 61.5871 46.8641 61.8446 46.0976 61.8446C44.3089 61.8446 43.4145 61.072 43.0312 59.5268L43.9256 59.398C44.0534 59.9131 44.3089 60.4282 44.5644 60.6857C44.8199 60.9433 45.331 61.072 45.9698 61.072C46.4808 61.072 46.8641 60.9433 47.1197 60.8145C47.5029 60.557 47.7585 60.1706 47.7585 59.7843C47.7585 59.2693 47.3752 58.883 46.6086 58.6254C45.842 58.3679 45.2032 58.2391 44.4366 57.9816C43.6701 57.5953 43.2868 57.0802 43.2868 56.3076C43.2868 55.6638 43.5423 55.1487 44.0534 54.7624C44.5644 54.5049 45.0755 54.2473 45.7143 54.2473C46.3531 54.2473 46.9919 54.3761 47.3752 54.6336C47.7585 54.8912 48.1418 55.4062 48.3973 55.9213L47.5029 56.3076C47.2474 55.7925 46.9919 55.535 46.7364 55.4062C46.4808 55.2775 46.0976 55.1487 45.5865 55.1487C44.5644 55.1487 44.0534 55.535 44.0534 56.1788C44.0534 56.5651 44.4366 56.9514 45.2032 57.209C46.4808 57.5953 47.2474 57.8528 47.3752 57.8528C48.525 58.1104 48.9083 58.7542 48.9083 59.5268Z" fill="#191A22" />
<path d="M56.9568 57.9815C56.9568 59.1404 56.7013 59.913 56.318 60.5568C55.807 61.4582 54.9126 61.8445 53.8905 61.8445C52.8684 61.8445 51.9741 61.4582 51.463 60.5568C51.0797 59.913 50.8242 59.1404 50.8242 57.9815C50.8242 56.8225 51.0797 56.0499 51.463 55.4061C52.1018 54.5047 52.8684 54.1184 53.8905 54.1184C54.9126 54.1184 55.807 54.5047 56.318 55.4061C56.7013 55.9212 56.9568 56.8225 56.9568 57.9815ZM55.9347 57.9815C55.9347 57.0801 55.807 56.3075 55.4237 55.9212C55.0404 55.2773 54.5293 55.0198 53.7628 55.0198C52.9962 55.0198 52.4851 55.2773 52.1018 55.9212C51.8463 56.4362 51.5908 57.0801 51.5908 57.9815C51.5908 58.8828 51.7186 59.6554 52.1018 60.0417C52.4851 60.6856 52.9962 60.9431 53.7628 60.9431C54.5293 60.9431 55.0404 60.6856 55.4237 60.0417C55.807 59.5267 55.9347 58.8828 55.9347 57.9815Z" fill="#191A22" />
<path d="M63.6011 61.7157H59.1294V54.1184H60.0237V60.8143H63.6011V61.7157Z" fill="#191A22" />
<path d="M70.7558 58.4965C70.7558 60.6856 69.8615 61.8445 67.9451 61.8445C66.0286 61.8445 65.1343 60.6856 65.1343 58.4965V54.1184H66.0286V58.4965C66.0286 59.2691 66.1564 59.7842 66.4119 60.1705C66.6674 60.6856 67.1785 60.8143 67.9451 60.8143C68.7116 60.8143 69.2227 60.5568 69.4782 60.1705C69.7337 59.7842 69.8615 59.2691 69.8615 58.4965V54.1184H70.7558V58.4965Z" fill="#191A22" />
<path d="M78.1657 55.0198H75.8659V61.7157H74.9716V55.0198H72.6719V54.1184H78.2934V55.0198H78.1657Z" fill="#191A22" />
<path d="M81.1046 61.7157H80.0825V54.1184H81.1046V61.7157Z" fill="#191A22" />
<path d="M89.5369 57.9815C89.5369 59.1404 89.2814 59.913 88.8981 60.5568C88.387 61.4582 87.4927 61.8445 86.4706 61.8445C85.4485 61.8445 84.5542 61.4582 84.0431 60.5568C83.6598 59.913 83.4043 59.1404 83.4043 57.9815C83.4043 56.8225 83.6598 56.0499 84.0431 55.4061C84.6819 54.5047 85.4485 54.1184 86.4706 54.1184C87.4927 54.1184 88.387 54.5047 88.8981 55.4061C89.2814 55.9212 89.5369 56.8225 89.5369 57.9815ZM88.5148 57.9815C88.5148 57.0801 88.387 56.3075 88.0038 55.9212C87.6205 55.2773 87.1094 55.0198 86.3428 55.0198C85.5763 55.0198 85.0652 55.2773 84.6819 55.9212C84.4264 56.4362 84.1709 57.0801 84.1709 57.9815C84.1709 58.8828 84.2986 59.6554 84.6819 60.0417C85.0652 60.6856 85.5763 60.9431 86.3428 60.9431C87.1094 60.9431 87.6205 60.6856 88.0038 60.0417C88.387 59.5267 88.5148 58.8828 88.5148 57.9815Z" fill="#191A22" />
<path d="M96.9468 61.7157H96.0524L92.6028 56.0499V61.7157H91.7085V54.1184H92.6028L96.0524 59.7842V54.1184H96.9468V61.7157Z" fill="#191A22" />
<path d="M104.74 59.5268C104.74 60.2994 104.485 60.8145 103.846 61.2008C103.335 61.5871 102.696 61.8446 101.93 61.8446C100.141 61.8446 99.2466 61.072 98.8633 59.5268L99.7576 59.398C99.8854 59.9131 100.141 60.4282 100.396 60.6857C100.652 60.9433 101.163 61.072 101.802 61.072C102.313 61.072 102.696 60.9433 102.952 60.8145C103.335 60.557 103.59 60.1706 103.59 59.7843C103.59 59.2693 103.207 58.883 102.441 58.6254C101.674 58.3679 101.035 58.2391 100.269 57.9816C99.5021 57.5953 99.1188 57.0802 99.1188 56.3076C99.1188 55.6638 99.3743 55.1487 99.8854 54.7624C100.396 54.5049 100.907 54.2473 101.546 54.2473C102.185 54.2473 102.824 54.3761 103.207 54.6336C103.591 54.8912 103.974 55.4062 104.357 55.9213L103.463 56.3076C103.207 55.7925 102.952 55.535 102.696 55.4062C102.441 55.2775 102.057 55.1487 101.546 55.1487C100.524 55.1487 100.013 55.535 100.013 56.1788C100.013 56.5651 100.396 56.9514 101.163 57.209C102.441 57.5953 103.207 57.8528 103.335 57.8528C104.357 58.1104 104.74 58.7542 104.74 59.5268Z" fill="#191A22" />
<path d="M113.556 5.44434L108.062 9.82245C115.344 14.5869 120.199 22.828 120.455 31.9706C120.838 30.6829 121.094 29.2664 121.222 27.85C122.244 19.0938 118.922 11.3677 113.556 5.44434Z" fill="#191A22" />
<path d="M83.2765 7.89093C92.4754 4.28542 100.269 5.1868 108.062 9.69368C107.168 8.66354 106.146 7.76216 104.996 6.86078C98.3525 1.58129 90.9423 -0.865304 83.2765 0.551146C83.1487 0.679914 83.2765 7.89093 83.2765 7.89093Z" fill="#191A22" />
<path d="M127.099 34.4172L120.455 31.8418C120.072 40.598 116.367 49.6118 108.701 54.3762C118.283 51.157 124.799 42.1432 127.099 34.4172Z" fill="#191A22" />
</symbol><symbol viewBox="0 0 95 96" fill="none" id="client-2">
<path d="M94.7126 27.3271L47.6207 0L0.528832 27.3271C0.528832 27.3271 -0.322222 73.0444 47.6207 96C95.5637 73.0444 94.7126 27.3271 94.7126 27.3271Z" fill="#191A22" />
<path d="M85.6932 52.0296C82.5071 59.8466 77.99 67.0821 72.3599 73.4132C65.3987 81.1225 56.9972 87.4536 47.6138 92.0619C38.2303 87.4536 29.8288 81.1225 22.8676 73.4132C11.9566 61.1171 5.41002 45.6339 4.18799 29.3325L47.6138 4.09424L91.0396 29.3109C90.4722 37.1279 88.661 44.7941 85.6932 52.0296Z" fill="#EFEFEF" />
<path d="M39.3933 26.3453L34.527 24.2134L36.6656 41.2255L26.1474 35.0236L25.8419 39.6535L15.4546 39.7396L19.0334 51.2605L15.1709 53.8231L34.898 65.0855L33.3923 71.1582L45.8308 68.9186L45.5253 80.8056H49.5842L49.2569 68.9186L61.6954 71.1582L60.1897 65.0855L79.9386 53.8231L76.0543 51.2605L79.6331 39.7396L69.2458 39.6535L68.9621 35.0236L58.4876 41.2255L60.6261 24.2134L55.7598 26.3453L47.5547 14.1138L39.3933 26.3453Z" fill="#191A22" />
<path d="M50.857 49.6636H48.9149V48.6945H46.449V56.533H48.9149V53.6044H47.7365V51.6878H50.857V57.3083L49.5041 58.4711H45.838L44.5068 57.3083V48.0054L45.8598 46.821H49.5041L50.857 48.0054V49.6636Z" fill="#EFEFEF" />
<path d="M28.4513 43.5938L25.2871 54.8522L27.1693 55.3703L28.5195 50.6799L29.3242 50.8952L29.9379 56.1038L31.9428 56.6422L31.3973 51.4942L33.2112 50.5049L34.3432 46.4134L33.3613 44.9262L28.4513 43.5938ZM29.8493 45.9423L32.2974 46.6086L31.4859 49.4955L29.0446 48.8226L29.8493 45.9423Z" fill="#EFEFEF" />
<path d="M36.0509 57.5939L34.8726 56.2587L36.3565 45.8577L38.2986 46.1161L36.9238 55.785L39.4334 56.1295L40.83 46.4606L42.7721 46.719L41.2882 57.1201L39.7607 58.0892L36.0509 57.5939Z" fill="#EFEFEF" />
<path d="M61.6613 45.015L64.1708 48.762L64.4545 49.1711L64.7164 44.1536L66.6585 43.5938L66.113 51.3892L67.3132 55.5884L65.4365 56.1267L64.2363 51.9491L59.6318 45.5318L61.6613 45.015Z" fill="#EFEFEF" />
<path d="M57.537 46.0745L52.6475 46.7003L54.175 58.2413L59.044 57.6155L60.217 56.2831L59.7601 52.7299L58.7167 51.7609L59.4805 50.5765L59.0168 47.0435L57.537 46.0745ZM57.2096 47.9924L57.5779 50.9197L55.1979 51.2831L54.8297 48.3558L57.2096 47.9924ZM57.8165 52.8981L58.1916 55.8322L55.8117 56.1283L55.4434 53.201L57.8165 52.8981Z" fill="#EFEFEF" />
</symbol><symbol viewBox="0 0 92 17" id="logo">
<path d="M7.98625 13.6079C5.57456 13.6079 4.0722 11.4385 4.0722 8.48028C4.0722 5.52204 5.33734 3.35267 7.94671 3.35267C9.68629 3.35267 10.7933 4.45708 11.0305 5.91647H15.0632C14.8655 4.10209 14.0352 2.52436 12.6515 1.4594C11.4654 0.552204 9.88397 0 7.98625 0C3.16287 0 0 3.62877 0 8.48028C0 13.3318 3.24194 16.8817 8.02578 16.8817C10.3189 16.8817 11.9794 16.2506 13.2445 15.0278C14.3515 13.9629 15.1027 12.5035 15.1818 10.8863H11.1491C10.9514 12.464 9.8049 13.6079 7.98625 13.6079ZM23.4843 4.57541C21.8633 4.57541 20.8749 5.24594 20.0447 6.35035H19.9656V0.315545H16.2492V16.5267H19.9656V10.0974C19.9656 8.6775 20.7959 7.65197 22.0215 7.65197C23.2076 7.65197 23.8401 8.48028 23.8401 9.70302V16.4872H27.5565V8.9536C27.517 6.38979 26.0146 4.57541 23.4843 4.57541ZM39.3382 14.7123V8.87471C39.3382 7.41531 38.8638 6.3109 37.8754 5.56149C37.0451 4.93039 35.859 4.61485 34.1195 4.61485C30.6008 4.61485 28.9403 6.46868 28.8612 8.59861H32.2613C32.3799 7.61253 32.9729 7.09977 34.159 7.09977C35.266 7.09977 35.7404 7.61253 35.7404 8.36195C35.7404 9.15081 34.9497 9.38747 32.7752 9.66357C30.3636 9.97912 28.3077 10.768 28.3077 13.2923C28.3077 15.58 29.9682 16.8422 32.2613 16.8422C34.0009 16.8422 35.0288 16.2111 35.7009 15.2645H35.7404C35.8195 15.8561 35.9381 16.29 36.1358 16.5661H39.7336V16.4084C39.4173 16.1322 39.3382 15.6195 39.3382 14.7123ZM35.8195 12.3852C35.8195 13.6473 34.8706 14.4756 33.4869 14.4756C32.5776 14.4756 31.9055 14.1207 31.9055 13.174C31.9055 12.3063 32.4985 11.9118 33.9218 11.5963C34.673 11.3991 35.3451 11.2413 35.8195 10.9652V12.3852ZM44.636 6.74478H44.5569V4.93039H40.9987V16.5267H44.7151V11.3202C44.7151 8.79582 46.1779 7.69142 48.4315 8.00696H48.5105V4.85151C48.3524 4.77262 48.1152 4.77262 47.7989 4.77262C46.4151 4.73318 45.4663 5.36427 44.636 6.74478ZM54.8363 14.1206C53.2548 14.1206 52.4641 12.819 52.4641 10.7285C52.4641 8.63805 53.2548 7.29698 54.8363 7.29698C55.8642 7.29698 56.4968 7.96752 56.734 9.03248H60.2922C59.9364 6.42923 57.9201 4.57541 54.7572 4.57541C51.0804 4.57541 48.6687 7.2181 48.6687 10.7285C48.6687 14.1995 51.0804 16.8817 54.8363 16.8817C58.1177 16.8817 60.2527 14.7912 60.3713 12.109H56.8131C56.6945 13.4501 55.9828 14.1206 54.8363 14.1206ZM85.1208 14.7123V8.87471C85.1208 7.41531 84.6463 6.3109 83.6579 5.56149C82.8277 4.93039 81.6416 4.61485 79.902 4.61485C76.3833 4.61485 74.7228 6.46868 74.6437 8.59861H78.0438C78.1624 7.61253 78.7555 7.09977 79.9416 7.09977C81.0486 7.09977 81.523 7.61253 81.523 8.36195C81.523 9.15081 80.7323 9.38747 78.5578 9.66357C76.1461 9.97912 74.0902 10.768 74.0902 13.2923C74.0902 15.58 75.7507 16.8422 78.0438 16.8422C79.7834 16.8422 80.8113 16.2111 81.4835 15.2645H81.523C81.6021 15.8561 81.7207 16.29 81.9184 16.5661H85.5161V16.4084C85.2394 16.1322 85.1208 15.6195 85.1208 14.7123ZM81.6021 12.3852C81.6021 13.6473 80.6532 14.4756 79.2694 14.4756C78.3601 14.4756 77.688 14.1207 77.688 13.174C77.688 12.3063 78.2811 11.9118 79.7043 11.5963C80.4555 11.3991 81.1276 11.2413 81.6021 10.9652V12.3852ZM90.379 13.174V0.315545H86.7022V11.9513C86.7022 12.8585 86.7022 13.529 86.7417 14.1601C86.8208 15.9745 87.9673 16.645 89.7465 16.645C90.5767 16.645 91.2884 16.6056 92 16.5267V14.0023C90.8139 14.1207 90.4581 13.884 90.379 13.174ZM68.0413 0.315545C65.2342 2.60325 66.3017 5.36427 66.3807 5.60093C66.4598 5.7587 66.4994 5.95592 66.4994 6.15313C66.4994 7.06033 65.7482 7.80974 64.8389 7.80974C64.0481 7.80974 63.376 7.25754 63.2179 6.50812C61.9527 7.61253 61.162 9.2297 61.162 11.0046C61.162 14.3179 63.8504 17 67.1715 17C70.4925 17 73.1809 14.3179 73.1809 11.0046C73.1809 10.5708 73.1414 10.1369 73.0623 9.74246C72.5088 6.23202 66.9738 2.20882 68.0413 0.315545ZM69.2669 12.5429C68.911 13.7262 67.6854 14.4362 66.4994 14.0812C65.3133 13.7262 64.6016 12.5035 64.9575 11.3202C64.997 11.123 65.0761 10.9258 65.1551 10.768C65.3923 10.3341 65.7877 10.058 66.3412 9.70302C67.8831 8.75638 68.3575 7.80974 68.1599 7.25754C69.1087 8.63805 69.6622 10.9652 69.2669 12.5429Z" />
</symbol><symbol viewBox="0 0 14 18" id="play">
<path d="M-0.000244141 0L13.9998 9L-0.000244141 18V0Z" />
</symbol><symbol id="spinner" viewBox="0 0 18 18">
<path d="M0.7,9.9C0.5,5.2,4.1,1.2,8.5,1c4.7-0.3,8.9,3.8,8.8,8.8" />
</symbol></defs><use width="12" height="12" xlink:href="#arrow-down" transform="translate(0, 0)" /><use width="9.1" height="5.7" xlink:href="#arrow-down-tip" transform="translate(0, 22)" /><use width="9.4" height="9.4" xlink:href="#arrow-right" transform="translate(0, 37.7)" /><use width="7.7" height="13.1" xlink:href="#arrow-tip-left" transform="translate(0, 57.1)" /><use width="7.7" height="13.1" xlink:href="#arrow-tip-right" transform="translate(0, 80.2)" /><use width="128" height="62" xlink:href="#client-1" transform="translate(0, 103.30000000000001)" /><use width="95" height="96" xlink:href="#client-2" transform="translate(0, 175.3)" /><use width="92" height="17" xlink:href="#logo" transform="translate(0, 281.3)" /><use width="14" height="18" xlink:href="#play" transform="translate(0, 308.3)" /><use width="18" height="18" xlink:href="#spinner" transform="translate(0, 336.3)" /></svg>