<svg xmlns="http://www.w3.org/2000/svg" xmlns:xlink="http://www.w3.org/1999/xlink">
<symbol id="brands--charcoal-logo" viewBox="0 0 238.9 43.2" xmlns="http://www.w3.org/2000/svg"><path d="M20.2 34.5c-6.1 0-9.9-5.5-9.9-13s3.2-13 9.8-13c4.4 0 7.2 2.8 7.8 6.5h10.2c-.5-4.6-2.6-8.6-6.1-11.3C29 1.4 25 0 20.2 0 8 0 0 9.2 0 21.5s8.2 21.3 20.3 21.3c5.8 0 10-1.6 13.2-4.7 2.8-2.7 4.7-6.4 4.9-10.5H28.2c-.5 4-3.4 6.9-8 6.9zM59.4 11.6c-4.1 0-6.6 1.7-8.7 4.5h-.2V.8h-9.4v41.1h9.4V25.6c0-3.6 2.1-6.2 5.2-6.2 3 0 4.6 2.1 4.6 5.2v17.2h9.4V22.7c-.1-6.5-3.9-11.1-10.3-11.1zM99.5 37.3V22.5c0-3.7-1.2-6.5-3.7-8.4-2.1-1.6-5.1-2.4-9.5-2.4-8.9 0-13.1 4.7-13.3 10.1h8.6c.3-2.5 1.8-3.8 4.8-3.8 2.8 0 4 1.3 4 3.2 0 2-2 2.6-7.5 3.3-6.1.8-11.3 2.8-11.3 9.2 0 5.8 4.2 9 10 9 4.4 0 7-1.6 8.7-4h.1c.2 1.5.5 2.6 1 3.3h9.1v-.4c-.8-.7-1-2-1-4.3zm-8.9-5.9c0 3.2-2.4 5.3-5.9 5.3-2.3 0-4-.9-4-3.3 0-2.2 1.5-3.2 5.1-4 1.9-.5 3.6-.9 4.8-1.6v3.6zM112.9 17.1h-.2v-4.6h-9v29.4h9.4V28.7c0-6.4 3.7-9.2 9.4-8.4h.2v-8c-.4-.2-1-.2-1.8-.2-3.5-.1-5.9 1.5-8 5zM138.7 35.8c-4 0-6-3.3-6-8.6s2-8.7 6-8.7c2.6 0 4.2 1.7 4.8 4.4h9c-.9-6.6-6-11.3-14-11.3-9.3 0-15.4 6.7-15.4 15.6 0 8.8 6.1 15.6 15.6 15.6 8.3 0 13.7-5.3 14-12.1h-9c-.3 3.4-2.1 5.1-5 5.1zM215.3 37.3V22.5c0-3.7-1.2-6.5-3.7-8.4-2.1-1.6-5.1-2.4-9.5-2.4-8.9 0-13.1 4.7-13.3 10.1h8.6c.3-2.5 1.8-3.8 4.8-3.8 2.8 0 4 1.3 4 3.2 0 2-2 2.6-7.5 3.3-6.1.8-11.3 2.8-11.3 9.2 0 5.8 4.2 9 10 9 4.4 0 7-1.6 8.7-4h.1c.2 1.5.5 2.6 1 3.3h9.1v-.4c-.7-.7-1-2-1-4.3zm-8.9-5.9c0 3.2-2.4 5.3-5.9 5.3-2.3 0-4-.9-4-3.3 0-2.2 1.5-3.2 5.1-4 1.9-.5 3.6-.9 4.8-1.6v3.6zM228.6 33.4V.8h-9.3v29.5c0 2.3 0 4 .1 5.6.2 4.6 3.1 6.3 7.6 6.3 2.1 0 3.9-.1 5.7-.3v-6.4c-3 .3-3.9-.3-4.1-2.1zM172.1.8c-7.1 5.8-4.4 12.8-4.2 13.4.2.4.3.9.3 1.4 0 2.3-1.9 4.2-4.2 4.2-2 0-3.7-1.4-4.1-3.3-3.2 2.8-5.2 6.9-5.2 11.4 0 8.4 6.8 15.2 15.2 15.2 8.4 0 15.2-6.8 15.2-15.2 0-1.1-.1-2.2-.3-3.2-1.4-8.9-15.4-19.1-12.7-23.9zm3.1 31c-.9 3-4 4.8-7 3.9-3-.9-4.8-4-3.9-7 .1-.5.3-1 .5-1.4.6-1.1 1.6-1.8 3-2.7 3.9-2.4 5.1-4.8 4.6-6.2 2.4 3.5 3.8 9.4 2.8 13.4zM236.8 4c.4-.2.5-.4.5-.8 0-.6-.6-1-1.2-1h-1.6v3.2h1V4.3h.4c.3 0 .4.1.5.4.1.3.1.7.1.7h.9c-.1-.1-.1-.5-.2-.8 0-.4-.1-.6-.4-.6zm-.8-.4h-.5V3h.5c.3 0 .4.1.4.3 0 .2-.2.3-.4.3z"/><path d="M235.9.8c-1.7 0-3 1.3-3 3s1.3 3 3 3 3-1.3 3-3-1.4-3-3-3zm0 5.6c-1.4 0-2.4-1.1-2.4-2.6s1-2.5 2.4-2.5 2.4 1.1 2.4 2.5c0 1.5-1.1 2.6-2.4 2.6z"/></symbol>
<symbol id="brands--charcoal-logo-nor" viewBox="0 0 232.8 43.2" xmlns="http://www.w3.org/2000/svg"><path d="M20.2 34.5c-6.1 0-9.9-5.5-9.9-13s3.2-13 9.8-13c4.4 0 7.2 2.8 7.8 6.5h10.2c-.5-4.6-2.6-8.6-6.1-11.3C29 1.4 25 0 20.2 0 8 0 0 9.2 0 21.5s8.2 21.3 20.3 21.3c5.8 0 10-1.6 13.2-4.7 2.8-2.7 4.7-6.4 4.9-10.5H28.2c-.5 4-3.4 6.9-8 6.9zM59.4 11.6c-4.1 0-6.6 1.7-8.7 4.5h-.2V.8h-9.4v41.1h9.4V25.6c0-3.6 2.1-6.2 5.2-6.2 3 0 4.6 2.1 4.6 5.2v17.2h9.4V22.7c-.1-6.5-3.9-11.1-10.3-11.1zM99.5 37.3V22.5c0-3.7-1.2-6.5-3.7-8.4-2.1-1.6-5.1-2.4-9.5-2.4-8.9 0-13.1 4.7-13.3 10.1h8.6c.3-2.5 1.8-3.8 4.8-3.8 2.8 0 4 1.3 4 3.2 0 2-2 2.6-7.5 3.3-6.1.8-11.3 2.8-11.3 9.2 0 5.8 4.2 9 10 9 4.4 0 7-1.6 8.7-4h.1c.2 1.5.5 2.6 1 3.3h9.1v-.4c-.8-.7-1-2-1-4.3zm-8.9-5.9c0 3.2-2.4 5.3-5.9 5.3-2.3 0-4-.9-4-3.3 0-2.2 1.5-3.2 5.1-4 1.9-.5 3.6-.9 4.8-1.6v3.6zM112.9 17.1h-.2v-4.6h-9v29.4h9.4V28.7c0-6.4 3.7-9.2 9.4-8.4h.2v-8c-.4-.2-1-.2-1.8-.2-3.5-.1-5.9 1.5-8 5zM138.7 35.8c-4 0-6-3.3-6-8.6s2-8.7 6-8.7c2.6 0 4.2 1.7 4.8 4.4h9c-.9-6.6-6-11.3-14-11.3-9.3 0-15.4 6.7-15.4 15.6 0 8.8 6.1 15.6 15.6 15.6 8.3 0 13.7-5.3 14-12.1h-9c-.3 3.4-2.1 5.1-5 5.1zM215.3 37.3V22.5c0-3.7-1.2-6.5-3.7-8.4-2.1-1.6-5.1-2.4-9.5-2.4-8.9 0-13.1 4.7-13.3 10.1h8.6c.3-2.5 1.8-3.8 4.8-3.8 2.8 0 4 1.3 4 3.2 0 2-2 2.6-7.5 3.3-6.1.8-11.3 2.8-11.3 9.2 0 5.8 4.2 9 10 9 4.4 0 7-1.6 8.7-4h.1c.2 1.5.5 2.6 1 3.3h9.1v-.4c-.7-.7-1-2-1-4.3zm-8.9-5.9c0 3.2-2.4 5.3-5.9 5.3-2.3 0-4-.9-4-3.3 0-2.2 1.5-3.2 5.1-4 1.9-.5 3.6-.9 4.8-1.6v3.6zM228.6 33.4V.8h-9.3v29.5c0 2.3 0 4 .1 5.6.2 4.6 3.1 6.3 7.6 6.3 2.1 0 3.9-.1 5.7-.3v-6.4c-3 .3-3.9-.3-4.1-2.1zM172.1.8c-7.1 5.8-4.4 12.8-4.2 13.4.2.4.3.9.3 1.4 0 2.3-1.9 4.2-4.2 4.2-2 0-3.7-1.4-4.1-3.3-3.2 2.8-5.2 6.9-5.2 11.4 0 8.4 6.8 15.2 15.2 15.2 8.4 0 15.2-6.8 15.2-15.2 0-1.1-.1-2.2-.3-3.2-1.4-8.9-15.4-19.1-12.7-23.9zm3.1 31c-.9 3-4 4.8-7 3.9-3-.9-4.8-4-3.9-7 .1-.5.3-1 .5-1.4.6-1.1 1.6-1.8 3-2.7 3.9-2.4 5.1-4.8 4.6-6.2 2.4 3.5 3.8 9.4 2.8 13.4z"/></symbol>
<symbol id="icons--icon-checkmark" viewBox="-160.8 175 12 12" xmlns="http://www.w3.org/2000/svg"><path d="M-156.3 185.5l-4.5-4.3 1.4-1.4 3.1 2.9 6.1-6.2 1.4 1.4-7.5 7.6z"/></symbol>
<symbol id="locomotive" viewBox="0 0 158.3 72.3"><path d="M158.3,3.1V0.2h-8.6v5.5h-6.1l0.3-5.5h-3.6l-0.2,5.5h-3.6l-0.2-5.5h-3.6l0.3,5.5h-6.7V0.2h-3.4v5.5h-8.3V3.1 h3.4V0.2h-10.3v2.9h3.4v2.6h-8.5V4.3c-0.1-1.2-0.6-2.2-1.6-3.1c-1-0.8-2.2-1.3-3.6-1.3c-1.4,0-2.7,0.5-3.7,1.3c-1,0.8-1.5,1.8-1.5,3 v1.4h-8L84,0.2h-2.6l-0.5,5.5h-9.3l-0.5-5.5h-2.6l-0.1,5.5h-8.2V4.3c-0.1-1.2-0.6-2.2-1.6-3.1c-1-0.8-2.2-1.3-3.6-1.3 c-1.4,0-2.7,0.5-3.7,1.3c-1,0.8-1.5,1.8-1.5,3v1.4h-6.5V4.3c-0.1-1.2-0.6-2.2-1.6-3.1c-1-0.8-2.2-1.3-3.6-1.3 c-1.4,0-2.7,0.5-3.7,1.3c-1,0.8-1.5,1.8-1.5,3v1.4h-7.7V4.3c-0.1-1.2-0.6-2.2-1.6-3.1c-1-0.8-2.2-1.3-3.6-1.3 c-1.4,0-2.7,0.5-3.7,1.3c-1,0.8-1.5,1.8-1.5,3v1.4H5.9V0.2H2.4v5.5H0v2.9h2.4v54.9H0v2.9h2.4v5.8H11v-2.9H5.9v-2.9h9.2V68 c0.1,1.2,0.6,2.2,1.6,3.1c1,0.8,2.2,1.3,3.6,1.3c1.4,0,2.7-0.5,3.7-1.3c1-0.8,1.5-1.8,1.5-3v-1.7h7.7V68c0.1,1.2,0.6,2.2,1.6,3.1 c1,0.8,2.2,1.3,3.6,1.3c1.4,0,2.6-0.5,3.7-1.3c1-0.8,1.5-1.8,1.5-3v-1.7H40V68c0,0.4-0.2,0.7-0.5,1c-0.3,0.3-0.7,0.4-1.2,0.4 c-0.5,0-0.9-0.1-1.2-0.4c-0.3-0.3-0.5-0.6-0.5-1v-1.7h13.4V68c0.1,1.2,0.6,2.2,1.6,3.1c1,0.8,2.2,1.3,3.6,1.3c1.4,0,2.7-0.5,3.7-1.3 c1-0.8,1.5-1.8,1.5-3v-1.7h7.5l-0.1,5.8h3.4L71,66.3h3.4l0.7,6h2.3l0.6-6h3.4l0,5.8h3.4l-0.1-5.8h7.3V68c0.1,1.2,0.6,2.2,1.6,3.1 c1,0.8,2.2,1.3,3.6,1.3c1.4,0,2.6-0.5,3.7-1.3c1-0.8,1.5-1.8,1.5-3v-1.7h8.5v5.8h3.4v-5.8h8.3v5.8h3.4v-5.8h9.9l0.3,5.8h3.8l0.3-5.8 h9.3v5.8h8.6v-2.9h-5.2v-2.9h3.4v-2.9h-3.4V37.6h3.4v-2.9h-3.4V8.6h3.4V5.7h-3.4V3.1H158.3z M139.9,8.6l-1.6,40.6l-1.7-40.6H139.9z  M95.5,4.3c0-0.4,0.2-0.7,0.5-1c0.3-0.3,0.7-0.4,1.2-0.4c0.5,0,0.9,0.1,1.2,0.4c0.3,0.3,0.5,0.6,0.5,1v1.4h-3.4V4.3z M99,63.5h-3.4 V8.6H99V63.5z M80.7,8.6l-4.4,47.8L71.9,8.6H80.7z M53.4,4.3c0-0.4,0.2-0.7,0.5-1c0.3-0.3,0.7-0.4,1.2-0.4c0.5,0,0.9,0.1,1.2,0.4 c0.3,0.3,0.5,0.6,0.5,1v1.4h-3.4V4.3z M56.8,63.5h-3.4V8.6h3.4V63.5z M36.5,4.3c0-0.4,0.2-0.7,0.5-1c0.3-0.3,0.7-0.4,1.2-0.4 c0.5,0,0.9,0.1,1.2,0.4c0.3,0.3,0.5,0.6,0.5,1v1.4h-3.4V4.3z M18.5,4.3c0-0.4,0.2-0.7,0.5-1c0.3-0.3,0.7-0.4,1.2-0.4 c0.5,0,0.9,0.1,1.2,0.4c0.3,0.3,0.5,0.6,0.5,1v1.4h-3.4V4.3z M22,63.5h-3.4V8.6H22V63.5z M5.9,8.6h9.2v54.9H5.9V8.6z M22,68 c0,0.4-0.2,0.7-0.5,1c-0.3,0.3-0.7,0.4-1.2,0.4c-0.5,0-0.9-0.1-1.2-0.4c-0.3-0.3-0.5-0.6-0.5-1v-1.7H22V68z M25.4,8.6h7.7v54.9h-7.7 V8.6z M36.5,8.6h13.4v54.9H36.5V8.6z M56.8,68c0,0.4-0.2,0.7-0.5,1c-0.3,0.3-0.7,0.4-1.2,0.4c-0.5,0-0.9-0.1-1.2-0.4 c-0.3-0.3-0.5-0.6-0.5-1v-1.7h3.4V68z M60.3,63.5V8.6h8.2l-0.7,54.9H60.3z M71,63.5l-0.5-32l3.6,32H71z M78.3,63.5l3.4-32l-0.3,32 H78.3z M84.8,63.5L84.1,8.6h8v54.9H84.8z M99,68c0,0.4-0.2,0.7-0.5,1c-0.3,0.3-0.7,0.4-1.2,0.4c-0.5,0-0.9-0.1-1.2-0.4 c-0.3-0.3-0.5-0.6-0.5-1v-1.7H99V68z M102.4,8.6h8.5v54.9h-8.5V8.6z M114.4,8.6h8.3v54.9h-8.3V8.6z M126.2,63.5V8.6h6.9l2.9,54.9 H126.2z M149.7,63.5h-9.1l2.8-54.9h6.3V63.5z"/></symbol>
</svg>