<svg width="95" height="96" viewBox="0 0 95 96" fill="none" xmlns="http://www.w3.org/2000/svg">
<path d="M94.7126 27.3271L47.6207 0L0.528832 27.3271C0.528832 27.3271 -0.322222 73.0444 47.6207 96C95.5637 73.0444 94.7126 27.3271 94.7126 27.3271Z" fill="#191A22"/>
<path d="M85.6932 52.0296C82.5071 59.8466 77.99 67.0821 72.3599 73.4132C65.3987 81.1225 56.9972 87.4536 47.6138 92.0619C38.2303 87.4536 29.8288 81.1225 22.8676 73.4132C11.9566 61.1171 5.41002 45.6339 4.18799 29.3325L47.6138 4.09424L91.0396 29.3109C90.4722 37.1279 88.661 44.7941 85.6932 52.0296Z" fill="#EFEFEF"/>
<path d="M39.3933 26.3453L34.527 24.2134L36.6656 41.2255L26.1474 35.0236L25.8419 39.6535L15.4546 39.7396L19.0334 51.2605L15.1709 53.8231L34.898 65.0855L33.3923 71.1582L45.8308 68.9186L45.5253 80.8056H49.5842L49.2569 68.9186L61.6954 71.1582L60.1897 65.0855L79.9386 53.8231L76.0543 51.2605L79.6331 39.7396L69.2458 39.6535L68.9621 35.0236L58.4876 41.2255L60.6261 24.2134L55.7598 26.3453L47.5547 14.1138L39.3933 26.3453Z" fill="#191A22"/>
<path d="M50.857 49.6636H48.9149V48.6945H46.449V56.533H48.9149V53.6044H47.7365V51.6878H50.857V57.3083L49.5041 58.4711H45.838L44.5068 57.3083V48.0054L45.8598 46.821H49.5041L50.857 48.0054V49.6636Z" fill="#EFEFEF"/>
<path d="M28.4513 43.5938L25.2871 54.8522L27.1693 55.3703L28.5195 50.6799L29.3242 50.8952L29.9379 56.1038L31.9428 56.6422L31.3973 51.4942L33.2112 50.5049L34.3432 46.4134L33.3613 44.9262L28.4513 43.5938ZM29.8493 45.9423L32.2974 46.6086L31.4859 49.4955L29.0446 48.8226L29.8493 45.9423Z" fill="#EFEFEF"/>
<path d="M36.0509 57.5939L34.8726 56.2587L36.3565 45.8577L38.2986 46.1161L36.9238 55.785L39.4334 56.1295L40.83 46.4606L42.7721 46.719L41.2882 57.1201L39.7607 58.0892L36.0509 57.5939Z" fill="#EFEFEF"/>
<path d="M61.6613 45.015L64.1708 48.762L64.4545 49.1711L64.7164 44.1536L66.6585 43.5938L66.113 51.3892L67.3132 55.5884L65.4365 56.1267L64.2363 51.9491L59.6318 45.5318L61.6613 45.015Z" fill="#EFEFEF"/>
<path d="M57.537 46.0745L52.6475 46.7003L54.175 58.2413L59.044 57.6155L60.217 56.2831L59.7601 52.7299L58.7167 51.7609L59.4805 50.5765L59.0168 47.0435L57.537 46.0745ZM57.2096 47.9924L57.5779 50.9197L55.1979 51.2831L54.8297 48.3558L57.2096 47.9924ZM57.8165 52.8981L58.1916 55.8322L55.8117 56.1283L55.4434 53.201L57.8165 52.8981Z" fill="#EFEFEF"/>
</svg>
