<?xml version="1.0" encoding="utf-8"?>
<!-- Generator: Adobe Illustrator 25.0.1, SVG Export Plug-In . SVG Version: 6.00 Build 0)  -->
<svg version="1.1" id="Calque_1" xmlns="http://www.w3.org/2000/svg" xmlns:xlink="http://www.w3.org/1999/xlink" x="0px" y="0px"
	 viewBox="0 0 12 16.7" style="enable-background:new 0 0 12 16.7;" xml:space="preserve">
     <style>
        path {
            fill: #000;
        }
        @media (prefers-color-scheme: dark) {
            path {
                fill: #fff;
            }
        }
    </style>
<path d="M6.9,0C4.1,2.3,5.1,5,5.2,5.3c0.1,0.2,0.1,0.4,0.1,0.6c0,0.9-0.8,1.7-1.7,1.7c-0.8,0-1.5-0.6-1.6-1.3C0.8,7.3,0,8.9,0,10.7
	c0,3.3,2.7,6,6,6c3.3,0,6-2.7,6-6c0-0.4,0-0.9-0.1-1.3C11.3,5.9,5.8,1.9,6.9,0z M8.1,12.2c-0.4,1.2-1.6,1.9-2.8,1.5
	c-1.2-0.4-1.9-1.6-1.5-2.8c0-0.2,0.1-0.4,0.2-0.6C4.2,10,4.6,9.7,5.2,9.4c1.5-0.9,2-1.9,1.8-2.4C7.9,8.3,8.5,10.6,8.1,12.2z"/>
</svg>
