<svg width="92" height="17" viewBox="0 0 92 17" fill="none" xmlns="http://www.w3.org/2000/svg">
<path d="M7.98625 13.6079C5.57456 13.6079 4.0722 11.4385 4.0722 8.48028C4.0722 5.52204 5.33734 3.35267 7.94671 3.35267C9.68629 3.35267 10.7933 4.45708 11.0305 5.91647H15.0632C14.8655 4.10209 14.0352 2.52436 12.6515 1.4594C11.4654 0.552204 9.88397 0 7.98625 0C3.16287 0 0 3.62877 0 8.48028C0 13.3318 3.24194 16.8817 8.02578 16.8817C10.3189 16.8817 11.9794 16.2506 13.2445 15.0278C14.3515 13.9629 15.1027 12.5035 15.1818 10.8863H11.1491C10.9514 12.464 9.8049 13.6079 7.98625 13.6079ZM23.4843 4.57541C21.8633 4.57541 20.8749 5.24594 20.0447 6.35035H19.9656V0.315545H16.2492V16.5267H19.9656V10.0974C19.9656 8.6775 20.7959 7.65197 22.0215 7.65197C23.2076 7.65197 23.8401 8.48028 23.8401 9.70302V16.4872H27.5565V8.9536C27.517 6.38979 26.0146 4.57541 23.4843 4.57541ZM39.3382 14.7123V8.87471C39.3382 7.41531 38.8638 6.3109 37.8754 5.56149C37.0451 4.93039 35.859 4.61485 34.1195 4.61485C30.6008 4.61485 28.9403 6.46868 28.8612 8.59861H32.2613C32.3799 7.61253 32.9729 7.09977 34.159 7.09977C35.266 7.09977 35.7404 7.61253 35.7404 8.36195C35.7404 9.15081 34.9497 9.38747 32.7752 9.66357C30.3636 9.97912 28.3077 10.768 28.3077 13.2923C28.3077 15.58 29.9682 16.8422 32.2613 16.8422C34.0009 16.8422 35.0288 16.2111 35.7009 15.2645H35.7404C35.8195 15.8561 35.9381 16.29 36.1358 16.5661H39.7336V16.4084C39.4173 16.1322 39.3382 15.6195 39.3382 14.7123ZM35.8195 12.3852C35.8195 13.6473 34.8706 14.4756 33.4869 14.4756C32.5776 14.4756 31.9055 14.1207 31.9055 13.174C31.9055 12.3063 32.4985 11.9118 33.9218 11.5963C34.673 11.3991 35.3451 11.2413 35.8195 10.9652V12.3852ZM44.636 6.74478H44.5569V4.93039H40.9987V16.5267H44.7151V11.3202C44.7151 8.79582 46.1779 7.69142 48.4315 8.00696H48.5105V4.85151C48.3524 4.77262 48.1152 4.77262 47.7989 4.77262C46.4151 4.73318 45.4663 5.36427 44.636 6.74478ZM54.8363 14.1206C53.2548 14.1206 52.4641 12.819 52.4641 10.7285C52.4641 8.63805 53.2548 7.29698 54.8363 7.29698C55.8642 7.29698 56.4968 7.96752 56.734 9.03248H60.2922C59.9364 6.42923 57.9201 4.57541 54.7572 4.57541C51.0804 4.57541 48.6687 7.2181 48.6687 10.7285C48.6687 14.1995 51.0804 16.8817 54.8363 16.8817C58.1177 16.8817 60.2527 14.7912 60.3713 12.109H56.8131C56.6945 13.4501 55.9828 14.1206 54.8363 14.1206ZM85.1208 14.7123V8.87471C85.1208 7.41531 84.6463 6.3109 83.6579 5.56149C82.8277 4.93039 81.6416 4.61485 79.902 4.61485C76.3833 4.61485 74.7228 6.46868 74.6437 8.59861H78.0438C78.1624 7.61253 78.7555 7.09977 79.9416 7.09977C81.0486 7.09977 81.523 7.61253 81.523 8.36195C81.523 9.15081 80.7323 9.38747 78.5578 9.66357C76.1461 9.97912 74.0902 10.768 74.0902 13.2923C74.0902 15.58 75.7507 16.8422 78.0438 16.8422C79.7834 16.8422 80.8113 16.2111 81.4835 15.2645H81.523C81.6021 15.8561 81.7207 16.29 81.9184 16.5661H85.5161V16.4084C85.2394 16.1322 85.1208 15.6195 85.1208 14.7123ZM81.6021 12.3852C81.6021 13.6473 80.6532 14.4756 79.2694 14.4756C78.3601 14.4756 77.688 14.1207 77.688 13.174C77.688 12.3063 78.2811 11.9118 79.7043 11.5963C80.4555 11.3991 81.1276 11.2413 81.6021 10.9652V12.3852ZM90.379 13.174V0.315545H86.7022V11.9513C86.7022 12.8585 86.7022 13.529 86.7417 14.1601C86.8208 15.9745 87.9673 16.645 89.7465 16.645C90.5767 16.645 91.2884 16.6056 92 16.5267V14.0023C90.8139 14.1207 90.4581 13.884 90.379 13.174ZM68.0413 0.315545C65.2342 2.60325 66.3017 5.36427 66.3807 5.60093C66.4598 5.7587 66.4994 5.95592 66.4994 6.15313C66.4994 7.06033 65.7482 7.80974 64.8389 7.80974C64.0481 7.80974 63.376 7.25754 63.2179 6.50812C61.9527 7.61253 61.162 9.2297 61.162 11.0046C61.162 14.3179 63.8504 17 67.1715 17C70.4925 17 73.1809 14.3179 73.1809 11.0046C73.1809 10.5708 73.1414 10.1369 73.0623 9.74246C72.5088 6.23202 66.9738 2.20882 68.0413 0.315545ZM69.2669 12.5429C68.911 13.7262 67.6854 14.4362 66.4994 14.0812C65.3133 13.7262 64.6016 12.5035 64.9575 11.3202C64.997 11.123 65.0761 10.9258 65.1551 10.768C65.3923 10.3341 65.7877 10.058 66.3412 9.70302C67.8831 8.75638 68.3575 7.80974 68.1599 7.25754C69.1087 8.63805 69.6622 10.9652 69.2669 12.5429Z" fill="#F1F2FE"/>
</svg>
